# xmcd
#
# Track frame offsets: 
#        150
#        12767
#        26640
#        42897
#        59122
#        75932
#        90242
#        109842
#        122772
#        140527
#        153462
#
# Disc length: 2228 seconds
#
# Revision: 2
# Processed by: cddbd v1.5.2PL0 Copyright (c) Steve Scherf et al.
# Submitted via: ExactAudioCopy v0.99pb4
#
DISCID=8308b20b
DTITLE=Booker T and The MGs - The Booker T. Set
DYEAR=1969
DGENRE=Soul
TTITLE0=The Horse
TTITLE1=Love Child
TTITLE2=Sing A Simple Song
TTITLE3=Lady Madonna
TTITLE4=Mrs Robinson
TTITLE5=This Guy's In Love With You
TTITLE6=Light My Fire
TTITLE7=Michelle
TTITLE8=You're All I Need To Get By
TTITLE9=I've Never Found A Girl
TTITLE10=It's Your Thing
EXTD=
EXTT0=
EXTT1=
EXTT2=
EXTT3=
EXTT4=
EXTT5=
EXTT6=
EXTT7=
EXTT8=
EXTT9=
EXTT10=
PLAYORDER=
